HIERARCHY
ROOT joint_Root
{
	OFFSET 0.0 0.0 0.0
	CHANNELS 6 Xposition Yposition Zposition Zrotation Xrotation Yrotation 
	JOINT Hips
	{
		OFFSET 4.5925 91.4895 -427.239
		CHANNELS 6 Xposition Yposition Zposition Zrotation Xrotation Yrotation 
		JOINT Spine
		{
			OFFSET 15.7357 0.0 0.0
			CHANNELS 6 Xposition Yposition Zposition Zrotation Xrotation Yrotation 
			JOINT Chest
			{
				OFFSET 8.98455 -0.406207 0.0
				CHANNELS 6 Xposition Yposition Zposition Zrotation Xrotation Yrotation 
				JOINT Neck
				{
					OFFSET 16.3773 0.0 0.0
					CHANNELS 6 Xposition Yposition Zposition Zrotation Xrotation Yrotation 
					JOINT Head
					{
						OFFSET 6.45672 0.0 0.0
						CHANNELS 6 Xposition Yposition Zposition Zrotation Xrotation Yrotation 
						End Site
						{
							OFFSET 0.0 0.0 0.0
						}
					}
				}
				JOINT Shoulder_L
				{
					OFFSET 12.9942 -0.242716 4.98039
					CHANNELS 6 Xposition Yposition Zposition Zrotation Xrotation Yrotation 
					JOINT UpperArm_L
					{
						OFFSET 5.34809 0.0 0.0
						CHANNELS 6 Xposition Yposition Zposition Zrotation Xrotation Yrotation 
						JOINT LowerArm_L
						{
							OFFSET 24.3286 1.87007e-05 0.0
							CHANNELS 6 Xposition Yposition Zposition Zrotation Xrotation Yrotation 
							JOINT Hand_L
							{
								OFFSET 22.2916 0.0 0.0
								CHANNELS 6 Xposition Yposition Zposition Zrotation Xrotation Yrotation 
								End Site
								{
									OFFSET 0.0 0.0 0.0
								}
							}
						}
					}
				}
				JOINT Shoulder_R
				{
					OFFSET 12.9945 -0.242716 -4.98039
					CHANNELS 6 Xposition Yposition Zposition Zrotation Xrotation Yrotation 
					JOINT UpperArm_R
					{
						OFFSET -5.34813 0.0 0.0
						CHANNELS 6 Xposition Yposition Zposition Zrotation Xrotation Yrotation 
						JOINT LowerArm_R
						{
							OFFSET -24.3289 0.000322201 0.0
							CHANNELS 6 Xposition Yposition Zposition Zrotation Xrotation Yrotation 
							JOINT Hand_R
							{
								OFFSET -22.2915 -0.000108084 0.0
								CHANNELS 6 Xposition Yposition Zposition Zrotation Xrotation Yrotation 
								End Site
								{
									OFFSET 0.0 0.0 0.0
								}
							}
						}
					}
				}
			}
		}
		JOINT UpperLeg_L
		{
			OFFSET -2.19248 -6.46944 0.0
			CHANNELS 6 Xposition Yposition Zposition Zrotation Xrotation Yrotation 
			JOINT LowerLeg_L
			{
				OFFSET 39.0811 0.0 -1.23785e-05
				CHANNELS 6 Xposition Yposition Zposition Zrotation Xrotation Yrotation 
				JOINT Foot_L
				{
					OFFSET 40.9854 0.0 -1.26872e-05
					CHANNELS 6 Xposition Yposition Zposition Zrotation Xrotation Yrotation 
					JOINT Toes_L
					{
						OFFSET 11.7543 0.0 0.0
						CHANNELS 6 Xposition Yposition Zposition Zrotation Xrotation Yrotation 
						End Site
						{
							OFFSET 0.0 0.0 0.0
						}
					}
				}
			}
		}
		JOINT UpperLeg_R
		{
			OFFSET -2.19251 6.46944 0.0
			CHANNELS 6 Xposition Yposition Zposition Zrotation Xrotation Yrotation 
			JOINT LowerLeg_R
			{
				OFFSET -39.0811 -0.00228153 -0.0401928
				CHANNELS 6 Xposition Yposition Zposition Zrotation Xrotation Yrotation 
				JOINT Foot_R
				{
					OFFSET -40.9854 0.0 0.0
					CHANNELS 6 Xposition Yposition Zposition Zrotation Xrotation Yrotation 
					JOINT Toes_R
					{
						OFFSET -11.7543 0.0 0.0
						CHANNELS 6 Xposition Yposition Zposition Zrotation Xrotation Yrotation 
						End Site
						{
							OFFSET 0.0 0.0 0.0
						}
					}
				}
			}
		}
	}
}
MOTION
Frames:	6
Frame Time:	0.0333333
0.000000 0.000000 0.000000 0.000000 0.000000 -0.000000 0.101303 92.692600 -1.966230 88.029600 6.948350 2.463660 15.735700 0.000005 -0.000001 89.467900 86.286600 -93.643600 8.984550 -0.406207 -0.000000 -0.317572 0.225175 -8.346020 16.377300 -0.000001 -0.000001 2.615240 -5.098260 4.743930 6.456720 -0.000001 -0.000000 -1.974400 -3.715640 3.126900 12.994200 -0.242716 4.980390 -91.780100 4.490090 -68.348300 5.348090 -0.000007 -0.000001 -61.173800 7.558680 -0.370171 24.328600 0.000019 0.000005 10.511700 21.544100 -26.806800 22.291600 -0.000001 0.000005 14.672900 5.163340 3.622170 12.994500 -0.242716 -4.980390 94.466800 -12.044500 -69.476000 -5.348130 -0.000001 -0.000004 -28.626600 -68.071100 -65.016600 -24.328900 0.000322 -0.000009 -5.700860 -5.864930 -44.331100 -22.291500 -0.000108 -0.000004 20.802900 5.585940 -10.536100 -2.192480 -6.469440 -0.000000 -175.127000 -12.779400 -5.469210 39.081100 -0.000007 -0.000012 -0.017746 0.045562 21.280500 40.985400 -0.000006 -0.000013 2.547080 17.018100 -64.261800 11.754300 -0.000000 0.000003 -0.000055 -0.000619 -16.601600 -2.192510 6.469440 -0.000001 177.200000 28.905900 179.450000 -39.081100 -0.002282 -0.040193 0.007015 -0.011367 17.984700 -40.985400 0.000008 0.000006 5.414500 17.813700 -64.652100 -11.754300 -0.000006 -0.000006 -0.003886 -0.050248 -18.617000
0.000000 0.000000 0.000000 0.000000 0.000000 -0.000000 0.252600 92.675600 -2.205490 87.990500 6.142230 2.577760 15.735700 0.000005 -0.000001 89.185000 86.192700 -93.025100 8.984550 -0.406207 -0.000000 -0.135426 0.156151 -7.675410 16.377300 -0.000001 -0.000001 2.587280 -4.804170 4.446070 6.456720 -0.000001 -0.000000 -1.667690 -3.719360 3.405180 12.994200 -0.242716 4.980390 -91.857500 4.694830 -68.385700 5.348090 -0.000007 -0.000001 -61.916500 9.984550 -1.389650 24.328600 0.000019 0.000005 10.187700 21.580000 -26.040100 22.291600 -0.000001 0.000005 14.370000 5.158390 3.741200 12.994500 -0.242716 -4.980390 93.877600 -10.860100 -70.214600 -5.348130 -0.000001 -0.000004 -27.268000 -64.766100 -59.370100 -24.328900 0.000322 -0.000009 -6.253940 -4.520520 -54.273900 -22.291500 -0.000108 -0.000004 20.894400 5.580650 -10.247000 -2.192480 -6.469440 -0.000000 -175.203000 -12.955700 -5.499020 39.081100 -0.000007 -0.000012 -0.017144 0.043477 21.520900 40.985400 -0.000006 -0.000013 2.577800 16.404900 -64.309200 11.754300 -0.000000 0.000003 -0.000059 -0.000656 -16.603000 -2.192510 6.469440 -0.000001 177.120000 28.662500 179.370000 -39.081100 -0.002282 -0.040193 0.007081 -0.011583 17.968200 -40.985400 0.000008 0.000006 5.382950 18.385300 -64.672400 -11.754300 -0.000006 -0.000006 -0.003795 -0.049293 -18.578100
0.000000 0.000000 0.000000 0.000000 0.000000 -0.000000 0.398012 92.669200 -2.438880 87.996700 5.140560 2.624750 15.735700 0.000005 -0.000001 89.543200 86.100500 -93.059200 8.984550 -0.406207 -0.000000 0.047820 0.174378 -7.027420 16.377300 -0.000001 -0.000001 2.424250 -4.468180 4.082140 6.456720 -0.000001 -0.000000 -1.380150 -3.729130 3.780500 12.994200 -0.242716 4.980390 -91.939200 4.920820 -68.460600 5.348090 -0.000007 -0.000001 -62.595000 12.273600 -2.460450 24.328600 0.000019 0.000005 9.986790 21.816200 -25.352800 22.291600 -0.000001 0.000005 13.922200 5.162330 3.646350 12.994500 -0.242716 -4.980390 93.182000 -9.476370 -71.343400 -5.348130 -0.000001 -0.000004 -25.673700 -60.778000 -52.685400 -24.328900 0.000322 -0.000009 -6.235820 -2.932460 -64.914200 -22.291500 -0.000108 -0.000004 20.972200 5.571980 -9.791250 -2.192480 -6.469440 -0.000000 -175.374000 -13.115900 -5.546570 39.081100 -0.000007 -0.000012 -0.013644 0.034367 21.653200 40.985400 -0.000006 -0.000013 2.557880 15.532100 -64.273800 11.754300 -0.000000 0.000003 -0.000059 -0.000649 -16.602700 -2.192510 6.469440 -0.000001 177.076000 28.124600 179.179000 -39.081100 -0.002282 -0.040193 0.007280 -0.012218 17.937900 -40.985400 0.000008 0.000006 5.354140 18.860400 -64.647200 -11.754300 -0.000006 -0.000006 -0.004044 -0.051899 -18.684200
0.000000 0.000000 0.000000 0.000000 0.000000 -0.000000 0.520605 92.641600 -2.626980 88.003400 4.099800 2.819780 15.735700 0.000005 -0.000001 89.233300 85.940700 -92.426900 8.984550 -0.406207 -0.000000 0.362670 0.097507 -6.382960 16.377300 -0.000001 -0.000001 2.114060 -4.017980 3.634340 6.456720 -0.000001 -0.000000 -1.147750 -3.765450 4.256810 12.994200 -0.242716 4.980390 -92.048400 5.148320 -68.268500 5.348090 -0.000007 -0.000001 -63.126900 14.719500 -3.657850 24.328600 0.000019 0.000005 9.811700 21.887400 -24.887200 22.291600 -0.000001 0.000005 13.708100 5.160280 3.696110 12.994500 -0.242716 -4.980390 92.330600 -7.441140 -72.556600 -5.348130 -0.000001 -0.000004 -24.390400 -55.586600 -46.529500 -24.328900 0.000322 -0.000009 -6.503970 -1.766370 -74.859600 -22.291500 -0.000108 -0.000004 21.463700 5.567400 -9.556140 -2.192480 -6.469440 -0.000000 -175.455000 -13.223700 -5.429780 39.081100 -0.000007 -0.000012 -0.014086 0.035056 21.891400 40.985400 -0.000006 -0.000013 2.507680 14.635900 -64.350700 11.754300 -0.000000 0.000003 -0.000052 -0.000589 -16.600400 -2.192510 6.469440 -0.000001 177.001000 27.297100 179.106000 -39.081100 -0.002282 -0.040193 0.007338 -0.012328 18.030600 -40.985400 0.000008 0.000006 5.271870 19.103500 -64.696600 -11.754300 -0.000006 -0.000006 -0.004048 -0.051943 -18.686000
0.000000 0.000000 0.000000 0.000000 0.000000 -0.000000 0.616601 92.607500 -2.810620 88.067800 2.978450 2.961090 15.735700 0.000005 -0.000001 88.612400 85.772000 -91.477700 8.984550 -0.406207 -0.000000 0.693255 -0.028024 -5.726090 16.377300 -0.000001 -0.000001 1.760850 -3.555950 3.158230 6.456720 -0.000001 -0.000000 -1.035260 -3.686300 4.520210 12.994200 -0.242716 4.980390 -92.150300 5.342330 -68.037500 5.348090 -0.000007 -0.000001 -63.711100 16.884700 -4.817950 24.328600 0.000019 0.000005 9.701330 21.833200 -24.687000 22.291600 -0.000001 0.000005 13.502700 5.157680 3.759280 12.994500 -0.242716 -4.980390 91.410900 -4.938970 -74.041800 -5.348130 -0.000001 -0.000004 -22.465700 -48.960500 -40.033500 -24.328900 0.000322 -0.000009 -7.207550 -0.834362 -83.427300 -22.291500 -0.000108 -0.000004 22.245600 5.562890 -9.333030 -2.192480 -6.469440 -0.000000 -175.602000 -13.202900 -5.370020 39.081100 -0.000007 -0.000012 -0.016793 0.041308 22.123500 40.985400 -0.000006 -0.000013 2.382010 13.509000 -64.402200 11.754300 -0.000000 0.000003 -0.000058 -0.000643 -16.602500 -2.192510 6.469440 -0.000001 176.935000 26.324900 178.915000 -39.081100 -0.002282 -0.040193 0.007577 -0.012913 18.228700 -40.985400 0.000008 0.000006 5.309680 19.283700 -64.858600 -11.754300 -0.000006 -0.000006 -0.003825 -0.049606 -18.590900
0.000000 0.000000 0.000000 0.000000 0.000000 -0.000000 0.656829 92.559900 -2.897370 88.155000 1.896340 3.294700 15.735700 0.000005 -0.000001 87.830900 85.546500 -90.373500 8.984550 -0.406207 -0.000000 1.135570 -0.189984 -5.079130 16.377300 -0.000001 -0.000001 1.432160 -3.169300 2.637100 6.456720 -0.000001 -0.000000 -1.000990 -3.563830 4.684260 12.994200 -0.242716 4.980390 -92.242300 5.549350 -67.957100 5.348090 -0.000007 -0.000001 -64.153700 18.796300 -5.660140 24.328600 0.000019 0.000005 9.737680 21.587300 -25.006000 22.291600 -0.000001 0.000005 13.187900 5.159710 3.709460 12.994500 -0.242716 -4.980390 90.523600 -2.039610 -75.613300 -5.348130 -0.000001 -0.000004 -21.241400 -40.679300 -34.306400 -24.328900 0.000322 -0.000009 -7.785290 -0.035168 -89.740300 -22.291500 -0.000108 -0.000004 22.380200 5.562140 -9.290790 -2.192480 -6.469440 -0.000000 -175.693000 -12.954400 -5.075640 39.081100 -0.000007 -0.000012 -0.024202 0.058753 22.388200 40.985400 -0.000006 -0.000013 2.180600 12.209900 -64.520000 11.754300 -0.000000 0.000003 -0.000052 -0.000588 -16.600400 -2.192510 6.469440 -0.000001 176.690000 25.543300 178.922000 -39.081100 -0.002282 -0.040193 -0.003467 0.020203 18.579400 -40.985400 0.000008 0.000006 4.951520 19.677300 -64.873600 -11.754300 -0.000006 -0.000006 -0.003765 -0.048969 -18.564900
